HIERARCHY
ROOT joint_Root
{
  OFFSET 0 0 0
  CHANNELS 6 Xposition Yposition Zposition Zrotation Xrotation Yrotation
  JOINT Hips
  {
    OFFSET 0.847027 93.984 -452.225
    CHANNELS 6 Xposition Yposition Zposition Zrotation Xrotation Yrotation
    JOINT Spine
    {
      OFFSET 15.7357 0 0
      CHANNELS 6 Xposition Yposition Zposition Zrotation Xrotation Yrotation
      JOINT Chest
      {
        OFFSET 8.98455 -0.406207 0
        CHANNELS 6 Xposition Yposition Zposition Zrotation Xrotation Yrotation
        JOINT Neck
        {
          OFFSET 16.3773 0 0
          CHANNELS 6 Xposition Yposition Zposition Zrotation Xrotation Yrotation
          JOINT Head
          {
            OFFSET 6.45672 0 0
            CHANNELS 6 Xposition Yposition Zposition Zrotation Xrotation Yrotation
            End Site
            {
              OFFSET 0 0 0
            }
          }
        }
        JOINT Shoulder_L
        {
          OFFSET 12.9942 -0.242716 4.98039
          CHANNELS 6 Xposition Yposition Zposition Zrotation Xrotation Yrotation
          JOINT UpperArm_L
          {
            OFFSET 5.34809 0 0
            CHANNELS 6 Xposition Yposition Zposition Zrotation Xrotation Yrotation
            JOINT LowerArm_L
            {
              OFFSET 24.3286 1.87007e-05 0
              CHANNELS 6 Xposition Yposition Zposition Zrotation Xrotation Yrotation
              JOINT Hand_L
              {
                OFFSET 22.2916 0 0
                CHANNELS 6 Xposition Yposition Zposition Zrotation Xrotation Yrotation
                End Site
                {
                  OFFSET 0 0 0
                }
              }
            }
          }
        }
        JOINT Shoulder_R
        {
          OFFSET 12.9945 -0.242716 -4.98039
          CHANNELS 6 Xposition Yposition Zposition Zrotation Xrotation Yrotation
          JOINT UpperArm_R
          {
            OFFSET -5.34813 0 0
            CHANNELS 6 Xposition Yposition Zposition Zrotation Xrotation Yrotation
            JOINT LowerArm_R
            {
              OFFSET -24.3289 0.000322201 0
              CHANNELS 6 Xposition Yposition Zposition Zrotation Xrotation Yrotation
              JOINT Hand_R
              {
                OFFSET -22.2915 -0.000108084 0
                CHANNELS 6 Xposition Yposition Zposition Zrotation Xrotation Yrotation
                End Site
                {
                  OFFSET 0 0 0
                }
              }
            }
          }
        }
      }
    }
    JOINT UpperLeg_L
    {
      OFFSET -2.19248 -6.46944 0
      CHANNELS 6 Xposition Yposition Zposition Zrotation Xrotation Yrotation
      JOINT LowerLeg_L
      {
        OFFSET 39.0811 0 -1.23785e-05
        CHANNELS 6 Xposition Yposition Zposition Zrotation Xrotation Yrotation
        JOINT Foot_L
        {
          OFFSET 40.9854 0 -1.26872e-05
          CHANNELS 6 Xposition Yposition Zposition Zrotation Xrotation Yrotation
          JOINT Toes_L
          {
            OFFSET 11.7543 0 0
            CHANNELS 6 Xposition Yposition Zposition Zrotation Xrotation Yrotation
            End Site
            {
              OFFSET 0 0 0
            }
          }
        }
      }
    }
    JOINT UpperLeg_R
    {
      OFFSET -2.19251 6.46944 0
      CHANNELS 6 Xposition Yposition Zposition Zrotation Xrotation Yrotation
      JOINT LowerLeg_R
      {
        OFFSET -39.0811 -0.00228153 -0.0401928
        CHANNELS 6 Xposition Yposition Zposition Zrotation Xrotation Yrotation
        JOINT Foot_R
        {
          OFFSET -40.9854 0 0
          CHANNELS 6 Xposition Yposition Zposition Zrotation Xrotation Yrotation
          JOINT Toes_R
          {
            OFFSET -11.7543 0 0
            CHANNELS 6 Xposition Yposition Zposition Zrotation Xrotation Yrotation
            End Site
            {
              OFFSET 0 0 0
            }
          }
        }
      }
    }
  }
}
MOTION
Frames:	5
Frame Time:	0.0333333
0 0 0 0 0 -0 -1.59663 87.5841 -423.779 87.1098 -2.92566 8.54082 15.7357 5.1072e-06 -5.51765e-07 94.5152 68.3181 -90.9886 8.98455 -0.406207 -4.3199e-07 35.3991 4.02516 5.89013 16.3773 -1.3905e-06 -6.99897e-07 21.1845 -3.22215 3.021 6.45672 -1.25837e-06 -1.02172e-07 -3.45243 -5.328 0.276687 12.9942 -0.242716 4.98039 -91.5148 7.23341 -93.1389 5.34809 -7.22636e-06 -6.2814e-07 -50.462 24.4963 -30.6609 24.3286 1.87007e-05 4.90208e-06 0.171537 0.232872 -36.4339 22.2916 -9.88446e-07 4.63217e-06 19.7221 5.59275 -10.9173 12.9945 -0.242716 -4.98039 89.7533 9.49146 -103.504 -5.34813 -1.25947e-06 -3.79883e-06 -42.2471 12.4365 -30.2945 -24.3289 0.000322201 -8.65921e-06 5.13223 12.1691 -23.0782 -22.2915 -0.000108084 -4.47941e-06 11.851 5.34948 -1.36205 -2.19248 -6.46944 -1.22534e-07 -173.04 -2.37025 -20.902 39.0811 -6.73843e-06 -1.23785e-05 0.150452 -0.0197846 82.1169 40.9854 -6.48686e-06 -1.26872e-05 -1.58323 2.27705 -54.207 11.7543 -2.30145e-07 3.05095e-06 0.148553 -0.249118 -20.9364 -2.19251 6.46944 -1.45247e-06 -176.909 17.0457 162.604 -39.0811 -0.00228153 -0.0401928 0.22309 -0.205344 44.1081 -40.9854 7.72618e-06 5.99936e-06 3.00995 -1.7823 -68.8417 -11.7543 -5.6619e-06 -5.58687e-06 -0.0124771 0.00808531 -16.5737 
0 0 0 0 0 -0 -1.93625 88.1283 -420.865 87.3365 -3.26309 8.66063 15.7357 5.1072e-06 -5.51765e-07 94.8362 68.6255 -91.5423 8.98455 -0.406207 -4.3199e-07 34.7736 4.13828 5.40033 16.3773 -1.3905e-06 -6.99897e-07 20.5283 -3.16074 2.49745 6.45672 -1.25837e-06 -1.02172e-07 -3.06177 -5.25325 -0.20373 12.9942 -0.242716 4.98039 -91.4449 6.91648 -93.17 5.34809 -7.22636e-06 -6.2814e-07 -52.2379 24.0763 -29.2447 24.3286 1.87007e-05 4.90208e-06 -0.270969 -0.386495 -35.0913 22.2916 -9.88446e-07 4.63217e-06 19.4407 5.58864 -10.6848 12.9945 -0.242716 -4.98039 89.7549 9.402 -103.5 -5.34813 -1.25947e-06 -3.79883e-06 -43.3258 12.6392 -29.5109 -24.3289 0.000322201 -8.65921e-06 5.10988 11.4787 -24.1888 -22.2915 -0.000108084 -4.47941e-06 11.9895 5.35859 -1.63716 -2.19248 -6.46944 -1.22533e-07 -173.399 -3.061 -22.5901 39.0811 -6.73843e-06 -1.23785e-05 0.136451 -0.0242695 79.8988 40.9854 -6.48686e-06 -1.26872e-05 -1.6603 3.57125 -54.7815 11.7543 -2.30145e-07 3.05095e-06 0.141971 -0.237122 -20.7309 -2.19251 6.46944 -1.45247e-06 -177.82 17.712 165.899 -39.0811 -0.00228153 -0.0401928 0.191294 -0.177876 42.5971 -40.9854 7.72618e-06 5.99936e-06 2.85724 -0.667303 -70.3454 -11.7543 -5.6619e-06 -5.58687e-06 -0.0243078 0.0159244 -16.5732 
0 0 0 0 0 -0 -2.20201 88.8212 -417.914 87.5921 -3.26028 8.39813 15.7357 5.1072e-06 -5.51765e-07 94.9792 69.2893 -91.9395 8.98455 -0.406207 -4.3199e-07 33.4488 4.05336 4.95166 16.3773 -1.3905e-06 -6.99897e-07 19.6151 -3.19449 2.23954 6.45672 -1.25837e-06 -1.02172e-07 -1.99349 -5.10719 -0.462865 12.9942 -0.242716 4.98039 -91.3472 6.62679 -93.4817 5.34809 -7.22636e-06 -6.2814e-07 -54.0164 23.5483 -27.5284 24.3286 1.87007e-05 4.90208e-06 -0.633492 -0.977278 -32.9622 22.2916 -9.88446e-07 4.63217e-06 18.9275 5.59257 -10.9101 12.9945 -0.242716 -4.98039 89.7192 9.28875 -103.261 -5.34813 -1.25947e-06 -3.79883e-06 -45.1296 12.8342 -28.3333 -24.3289 0.000322201 -8.65921e-06 4.78016 10.4377 -24.7804 -22.2915 -0.000108084 -4.47941e-06 11.6892 5.37057 -2.0042 -2.19248 -6.46944 -1.22533e-07 -173.824 -3.58863 -23.8111 39.0811 -6.73843e-06 -1.23785e-05 0.113624 -0.0311677 74.9555 40.9854 -6.48686e-06 -1.26872e-05 -1.70254 4.87609 -56.297 11.7543 -2.30145e-07 3.05095e-06 0.127851 -0.211687 -20.2939 -2.19251 6.46944 -1.45247e-06 -178.901 19.0518 169.419 -39.0811 -0.00228153 -0.0401928 0.165943 -0.167913 39.9637 -40.9854 7.72618e-06 5.99936e-06 2.74854 0.86037 -71.3093 -11.7543 -5.6619e-06 -5.58687e-06 -0.0187918 0.0122677 -16.5734 
0 0 0 0 0 -0 -2.36436 89.5642 -414.946 87.9293 -3.20488 7.74322 15.7357 5.1072e-06 -5.51764e-07 95.0392 70.2807 -92.3613 8.98455 -0.406207 -4.3199e-07 31.4792 3.82823 4.34466 16.3773 -1.3905e-06 -6.99897e-07 18.58 -3.21221 1.91917 6.45672 -1.25837e-06 -1.02172e-07 -0.530443 -4.93141 -0.206569 12.9942 -0.242716 4.98039 -91.2242 6.18475 -93.7811 5.34809 -7.22636e-06 -6.2814e-07 -55.6947 23.2588 -25.8371 24.3286 1.87007e-05 4.90207e-06 -0.825885 -1.42988 -30.0176 22.2916 -9.88446e-07 4.63217e-06 18.6725 5.59623 -11.119 12.9945 -0.242716 -4.98039 89.673 9.07381 -102.927 -5.34813 -1.25947e-06 -3.79883e-06 -47.5441 13.1819 -26.8167 -24.3289 0.000322201 -8.65921e-06 4.59217 9.94486 -24.9433 -22.2915 -0.000108084 -4.47941e-06 11.2909 5.37473 -2.13372 -2.19248 -6.46944 -1.22533e-07 -174.346 -4.45772 -24.6076 39.0811 -6.73843e-06 -1.23785e-05 0.0948185 -0.0403516 67.5904 40.9854 -6.48686e-06 -1.26872e-05 -2.08414 5.45065 -57.7248 11.7543 -2.30145e-07 3.05095e-06 0.121595 -0.200567 -20.1021 -2.19251 6.46944 -1.45247e-06 179.891 20.3982 172.957 -39.0811 -0.00228153 -0.0401928 0.159986 -0.186922 36.4719 -40.9854 7.72618e-06 5.99936e-06 2.49778 2.49313 -71.7736 -11.7543 -5.6619e-06 -5.58687e-06 -0.0296611 0.0193995 -16.5732 
0 0 0 0 0 -0 -2.42816 90.2752 -411.984 88.3634 -3.38714 6.54626 15.7357 5.1072e-06 -5.51764e-07 95.3112 71.6022 -93.0994 8.98455 -0.406207 -4.3199e-07 28.842 3.65603 3.52753 16.3773 -1.3905e-06 -6.99897e-07 17.4737 -3.22044 1.60397 6.45672 -1.25837e-06 -1.02172e-07 1.3776 -4.79575 0.167038 12.9942 -0.242716 4.98039 -91.1333 5.79438 -93.9137 5.34809 -7.22636e-06 -6.2814e-07 -57.2599 23.1112 -24.3228 24.3286 1.87007e-05 4.90208e-06 -0.778383 -1.57517 -26.2952 22.2916 -9.88446e-07 4.63217e-06 18.1865 5.59041 -10.7824 12.9945 -0.242716 -4.98039 89.6104 8.81129 -102.458 -5.34813 -1.25947e-06 -3.79883e-06 -50.0239 13.9535 -25.1334 -24.3289 0.000322201 -8.65921e-06 4.58408 10.024 -24.7361 -22.2915 -0.000108084 -4.47941e-06 11.1822 5.37424 -2.11878 -2.19248 -6.46944 -1.22533e-07 -175.046 -5.66665 -25.0466 39.0811 -6.73843e-06 -1.23785e-05 0.0739265 -0.0489607 57.9051 40.9854 -6.48686e-06 -1.26872e-05 -2.3446 5.50949 -58.2211 11.7543 -2.30145e-07 3.05095e-06 0.128469 -0.212806 -20.313 -2.19251 6.46944 -1.45247e-06 178.716 21.4247 176.164 -39.0811 -0.00228153 -0.0401928 0.12385 -0.162321 32.331 -40.9854 7.72618e-06 5.99936e-06 2.06674 4.03923 -71.7704 -11.7543 -5.6619e-06 -5.58687e-06 -0.0115782 0.00752834 -16.5737 
